<svg height="141" viewBox="0 0 140 141" width="140" xmlns="http://www.w3.org/2000/svg"><g fill="none" transform="translate(0 .1595)"><g fill="#999" transform="translate(17 6)"><path d="m56.67 20.73c3.31-2.218 5.49-5.987 5.4880014-10.268-.0020014-4.281-2.1860014-8.048-5.4980014-10.262-3.31 2.218-5.49 5.987-5.4880014 10.268.0020014 4.281 2.1860014 8.048 5.4980014 10.262z"/><path d="m118.481 120.003c-.002-4.528-3.712-8.232-8.244-8.229002l-101.547.053002c-4.532.002-8.238 3.709-8.23500182 8.238v1.583c.00300182 4.528 3.71300182 8.232 8.24500182 8.229002l101.547-.053002c4.532-.002 8.238-3.709 8.236001-8.238z"/><path d="m59.425 37.325c-27.381 3.517-48.579 29.426-48.5650069 56.871l97.1890069-.05c-.014-27.445-21.238-53.332-48.624-56.821z"/></g><g fill="#fff"><path d="m12.359 140c-6.811 0-12.354-5.535-12.358-12.342l-.00200122-1.584c-.00299878-6.81 5.54000122-12.35 12.35300122-12.356l115.28-.062h.008c3.29 0 6.389 1.286 8.727 3.621 2.328612 2.306509 3.636636 5.44944 3.633002 8.727v1.579c.003998 6.81-5.537002 12.353-12.353002 12.358l-115.28.059zm115.28-18.11h-.003l-115.28.062c-2.2737187.002755-4.11624498 1.845281-4.119 4.119v1.581c.00540935 2.272222 1.847774 4.112351 4.12 4.114h.003l115.28-.059c2.273491-.003304 4.115696-1.845509 4.119-4.119v-1.581c-.00152-1.09179-.439066-2.13794-1.216-2.905-.767629-.775115-1.813102-1.211449-2.904-1.212z"/><path d="m112.143 57.249c-10.286-10.624-23.683-16.82-38.068-17.822l-.004-7.031c2.850199-.726796 5.4517897-2.2084348 7.531-4.289 3.0982642-3.0828205 4.8339696-7.2773218 4.82-11.648.0099964-4.3699071-1.7301739-8.56187356-4.832-11.64-3.0844938-3.09625569-7.2785594-4.83127177-11.649-4.81906466h-.007c-9.087.00306466-16.477 7.39506466-16.473 16.47506466.005 7.657 5.272 14.087 12.369 15.919l.004 6.993c-30.935 2.207-55.446 28.862-55.4290088 61.316 0 1.091978.4349709 2.138991 1.2076784 2.910573.7727075.771583 1.8203529 1.204488 2.9123304 1.203429h.003l93.044-.049002.012.001h.003l.012-.001 17.851-.01c1.092324.000266 2.139957-.433678 2.912159-1.206255.772203-.772578 1.204842-1.820421 1.204842-2.912745-.008001-16.387-6.196001-31.796-17.424001-43.39zm-50.4410002-40.779c-.0009998-4.54 3.6930002-8.234 8.2360002-8.236h.004c2.199 0 4.267.855 5.823 2.409 1.5511488 1.5393958 2.4215545 3.6356439 2.4170471 5.821.0073642 2.1845424-.8606153 4.281019-2.4100471 5.821-1.5406482 1.550872-3.6379602 2.4205506-5.824 2.4150264h-.004c-4.542.0009736-8.24-3.6900264-8.2420002-8.2300264zm49.8140002 80.062c-1.776-19.866-16.206-36.171-35.614-39.543-2.244-.415-4.375 1.107-4.765 3.35-.1868486 1.0760341.0616125 2.182214.6906778 3.0749841.6290654.8927702 1.587156 1.4989296 2.6633222 1.6850159 15.456 2.686 26.988 15.595 28.722 31.437l-84.417.044c2.018-27.429 24.189-49.112 51.164-49.125h.025c13.677 0 26.546 5.51 36.236 15.518 8.79 9.078 14.017 20.865 14.953 33.553z"/></g></g></svg>