<svg height="190" viewBox="0 0 849 190" width="849" xmlns="http://www.w3.org/2000/svg"><g fill="none"><g transform="translate(0 23.1595)"><g fill="#999" transform="translate(17 6)"><path d="m56.67 20.73c3.31-2.218 5.49-5.987 5.4880014-10.268-.0020014-4.281-2.1860014-8.048-5.4980014-10.262-3.31 2.218-5.49 5.987-5.4880014 10.268.0020014 4.281 2.1860014 8.048 5.4980014 10.262z"/><path d="m118.481 120.003c-.002-4.528-3.712-8.232-8.244-8.229002l-101.547.053002c-4.532.002-8.238 3.709-8.23500182 8.238v1.583c.00300182 4.528 3.71300182 8.232 8.24500182 8.229002l101.547-.053002c4.532-.002 8.238-3.709 8.236001-8.238z"/><path d="m59.425 37.325c-27.381 3.517-48.579 29.426-48.5650069 56.871l97.1890069-.05c-.014-27.445-21.238-53.332-48.624-56.821z"/></g><g fill="#fff"><path d="m12.359 140c-6.811 0-12.354-5.535-12.358-12.342l-.00200122-1.584c-.00299878-6.81 5.54000122-12.35 12.35300122-12.356l115.28-.062h.008c3.29 0 6.389 1.286 8.727 3.621 2.328612 2.306509 3.636636 5.44944 3.633002 8.727v1.579c.003998 6.81-5.537002 12.353-12.353002 12.358l-115.28.059zm115.28-18.11h-.003l-115.28.062c-2.2737187.002755-4.11624498 1.845281-4.119 4.119v1.581c.00540935 2.272222 1.847774 4.112351 4.12 4.114h.003l115.28-.059c2.273491-.003304 4.115696-1.845509 4.119-4.119v-1.581c-.00152-1.09179-.439066-2.13794-1.216-2.905-.767629-.775115-1.813102-1.211449-2.904-1.212z"/><path d="m112.143 57.249c-10.286-10.624-23.683-16.82-38.068-17.822l-.004-7.031c2.850199-.726796 5.4517897-2.2084348 7.531-4.289 3.0982642-3.0828205 4.8339696-7.2773218 4.82-11.648.0099964-4.3699071-1.7301739-8.56187356-4.832-11.64-3.0844938-3.09625569-7.2785594-4.83127177-11.649-4.81906466h-.007c-9.087.00306466-16.477 7.39506466-16.473 16.47506466.005 7.657 5.272 14.087 12.369 15.919l.004 6.993c-30.935 2.207-55.446 28.862-55.4290088 61.316 0 1.091978.4349709 2.138991 1.2076784 2.910573.7727075.771583 1.8203529 1.204488 2.9123304 1.203429h.003l93.044-.049002.012.001h.003l.012-.001 17.851-.01c1.092324.000266 2.139957-.433678 2.912159-1.206255.772203-.772578 1.204842-1.820421 1.204842-2.912745-.008001-16.387-6.196001-31.796-17.424001-43.39zm-50.4410002-40.779c-.0009998-4.54 3.6930002-8.234 8.2360002-8.236h.004c2.199 0 4.267.855 5.823 2.409 1.5511488 1.5393958 2.4215545 3.6356439 2.4170471 5.821.0073642 2.1845424-.8606153 4.281019-2.4100471 5.821-1.5406482 1.550872-3.6379602 2.4205506-5.824 2.4150264h-.004c-4.542.0009736-8.24-3.6900264-8.2420002-8.2300264zm49.8140002 80.062c-1.776-19.866-16.206-36.171-35.614-39.543-2.244-.415-4.375 1.107-4.765 3.35-.1868486 1.0760341.0616125 2.182214.6906778 3.0749841.6290654.8927702 1.587156 1.4989296 2.6633222 1.6850159 15.456 2.686 26.988 15.595 28.722 31.437l-84.417.044c2.018-27.429 24.189-49.112 51.164-49.125h.025c13.677 0 26.546 5.51 36.236 15.518 8.79 9.078 14.017 20.865 14.953 33.553z"/></g></g><g fill="#fff"><path d="m.3306 61.0221383v-54.23037714h24.5140811c5.8587113 0 11.0364758 1.12334353 15.5332936 3.37003054 4.4968178 2.2466871 7.9914877 5.4101258 10.4840095 9.490316 2.4925219 4.0801903 3.7387829 8.8318043 3.7387829 14.254842 0 5.4230378-1.246261 10.1746518-3.7387829 14.254842-2.4925218 4.0801903-5.9871917 7.243629-10.4840095 9.490316-4.4968178 2.2466871-9.6745823 3.3700306-15.5332936 3.3700306zm12.4883055-10.3037716h11.4090692c5.3961814 0 9.7002784-1.5107034 12.9122912-4.5321101 3.2120127-3.0214068 4.8180191-7.114509 4.8180191-12.2793069 0-5.1647978-1.6060064-9.2579001-4.8180191-12.2793068-3.2120128-3.0214067-7.5161098-4.5321101-12.9122912-4.5321101h-11.4090692zm50.3386635 10.3037716v-41.6799184h12.0257756v41.6799184zm6.0128878-47.490316c-2.2098648 0-4.0085919-.6455997-5.3961814-1.9367992-1.3875895-1.2911994-2.0813842-2.89228674-2.0813842-4.80326194 0-1.91097519.6937947-3.51206252 2.0813842-4.80326198 1.3875895-1.29119945 3.1863166-1.93679918 5.3961814-1.93679918s4.0085919.61977574 5.3961814 1.85932722 2.0813842 2.78899082 2.0813842 4.64831804c0 2.01427115-.6937947 3.67991844-2.0813842 4.99694194-1.3875895 1.3170234-3.1863166 1.9755351-5.3961814 1.9755351zm31.1436752 48.1100918c-3.4432774 0-6.8094668-.4260959-10.0985678-1.2782875s-5.9101034-1.9238872-7.8630072-3.2150866l4.0085919-8.6768604c1.8501194 1.1879035 4.0856802 2.1563031 6.7066826 2.9051988s5.1906126 1.1233435 7.7088305 1.1233435c5.087828 0 7.631742-1.2653755 7.631742-3.7961264 0-1.1879035-.693794-2.0400951-2.081384-2.5565749-1.387589-.5164798-3.520366-.9554876-6.3983293-1.3170235-3.3918854-.5164797-6.1927605-1.1104315-8.4026253-1.7818552s-4.1242243-1.8593272-5.7430788-3.5637105c-1.6188544-1.7043833-2.4282816-4.1318383-2.4282816-7.2823649 0-2.6340469.758035-4.9711179 2.274105-7.0112131 1.51607-2.0400951 3.7259348-3.6282705 6.6295943-4.764526s6.3340891-1.7043833 10.2912887-1.7043833c2.929356 0 5.845863.3227999 8.749523.9683996 2.903659.6455998 5.306245 1.5365274 7.207756 2.6727829l-4.008592 8.5993884c-3.648846-2.0659191-7.631742-3.0988787-11.948687-3.0988787-2.5696101 0-4.4968177.3615358-5.7816228 1.0846075s-1.9272077 1.6527353-1.9272077 2.7889909c0 1.2911994.6937948 2.195039 2.0813843 2.7115188s3.5974542 1.0071356 6.6295942 1.4719674c3.391885.5681278 6.167064 1.1749915 8.325537 1.8205912 2.158473.6455998 4.034288 1.8205913 5.627446 3.5249745 1.593159 1.7043833 2.389738 4.0801903 2.389738 7.127421 0 2.582399-.770883 4.880734-2.312649 6.8950051-1.541766 2.0142712-3.790175 3.5766225-6.745227 4.6870541-2.955052 1.1104315-6.46257 1.6656473-10.522554 1.6656473zm51.494988-42.91947c3.854416 0 7.361933.8909277 10.522554 2.6727829 3.160621 1.7818553 5.640294 4.2867822 7.439021 7.5147808 1.798728 3.2279987 2.698091 6.9853891 2.698091 11.2721713s-.899363 8.0441726-2.698091 11.2721713c-1.798727 3.2279986-4.2784 5.7329255-7.439021 7.5147808-3.160621 1.7818552-6.668138 2.6727829-10.522554 2.6727829-5.293397 0-9.456165-1.6785593-12.488305-5.0356779v19.4454638h-12.025776v-56.7094801h11.486158v4.803262c2.980747-3.6153585 7.323389-5.4230378 13.027923-5.4230378zm-2.081384 33.0030581c3.083532 0 5.614598-1.0458715 7.593198-3.1376146 1.9786-2.0917432 2.9679-4.893646 2.9679-8.4057085s-.9893-6.3139653-2.9679-8.4057085c-1.9786-2.0917431-4.509666-3.1376146-7.593198-3.1376146s-5.614598 1.0458715-7.593198 3.1376146c-1.9786 2.0917432-2.9679 4.893646-2.9679 8.4057085s.9893 6.3139653 2.9679 8.4057085c1.9786 2.0917431 4.509666 3.1376146 7.593198 3.1376146zm46.792601-33.0030581c6.424026 0 11.357677 1.5365274 14.800955 4.6095821s5.164917 7.7084608 5.164917 13.9062181v23.783894h-11.254893v-5.1906218c-2.261257 3.8735984-6.475418 5.8103976-12.642482 5.8103976-3.186317 0-5.948648-.5423038-8.286993-1.6269113-2.338345-1.0846076-4.124224-2.582399-5.357637-4.4933742s-1.85012-4.0801902-1.85012-6.5076452c0-3.8735984 1.45183-6.9208291 4.35549-9.1416922 2.903659-2.220863 7.387629-3.3312946 13.451909-3.3312946h9.55895c0-2.6340469-.796579-4.66123-2.389738-6.0815494-1.593158-1.4203194-3.982895-2.1304791-7.169212-2.1304791-2.209865 0-4.381185.3486238-6.513962 1.0458716-2.132776.6972477-3.944351 1.6398233-5.434725 2.8277268l-4.316945-8.4444445c2.261257-1.6010873 4.972195-2.8406388 8.132816-3.7186544 3.16062-.8780156 6.411177-1.3170235 9.75167-1.3170235zm-.925059 34.7849134c2.055688 0 3.880111-.4777438 5.473269-1.4332314 1.593159-.9554876 2.723787-2.362895 3.391886-4.2222222v-4.2609582h-8.248449c-4.933651 0-7.400477 1.6269113-7.400477 4.8807339 0 1.5494394.603858 2.7760788 1.811575 3.6799185 1.207717.9038396 2.865115 1.3557594 4.972196 1.3557594zm55.272315-3.0214067 3.237709 8.5219164c-1.182021.8780156-2.633851 1.5365273-4.35549 1.9755351-1.721638.4390079-3.533214.6585118-5.434725.6585118-4.933652 0-8.749523-1.2653755-11.447613-3.7961264-2.698091-2.530751-4.047137-6.2494054-4.047137-11.1559633v-17.1213048h-6.398329v-9.2966361h6.398329v-10.1488277h12.025776v10.1488277h10.329833v9.2966361h-10.329833v16.9663608c0 1.7560313.449682 3.1117907 1.349045 4.0672783.899364.9554876 2.171321 1.4332314 3.815872 1.4332314 1.901511 0 3.520366-.5164798 4.856563-1.5494393zm28.753938 11.1559633c-4.41973 0-8.389777-.9167516-11.910143-2.7502549-3.520366-1.8335032-6.269849-4.3771661-8.248449-7.6309888-1.9786-3.2538226-2.9679-6.946653-2.9679-11.0784913s.9893-7.8246687 2.9679-11.0784913c1.9786-3.2538227 4.728083-5.7974856 8.248449-7.6309888s7.490413-2.7502549 11.910143-2.7502549c4.368337 0 8.184208.9167517 11.447613 2.7502549s5.640295 4.4546381 7.130668 7.8634047l-9.327685 5.0356778c-2.158472-3.8219503-5.2677-5.7329255-9.327685-5.7329255-3.134924 0-5.73023 1.0329595-7.785918 3.0988787-2.055689 2.0659191-3.083533 4.8807339-3.083533 8.4444444s1.027844 6.3785253 3.083533 8.4444444c2.055688 2.0659192 4.650994 3.0988787 7.785918 3.0988787 4.111377 0 7.220605-1.9109752 9.327685-5.7329255l9.327685 5.1131498c-1.490373 3.3054706-3.867263 5.8878695-7.130668 7.7471967-3.263405 1.8593273-7.079276 2.7889909-11.447613 2.7889909zm50.415752-42.91947c5.13922 0 9.28914 1.5494394 12.449761 4.6483181 3.16062 3.0988787 4.740931 7.6955487 4.740931 13.7900102v23.8613659h-12.025776v-22.0020387c0-3.3054706-.719491-5.7716616-2.158473-7.3985729-1.438981-1.6269113-3.520365-2.440367-6.244152-2.440367-3.03214 0-5.447574.9425756-7.246301 2.8277268-1.798727 1.8851513-2.698091 4.6870541-2.698091 8.4057085v20.6075433h-12.025775v-57.48419977h12.025775v20.14271157c1.593159-1.6010874 3.520366-2.8277269 5.781623-3.6799185s4.728083-1.2782875 7.400478-1.2782875zm69.14821 21.6146789c0 .154944-.077089 1.2395515-.231265 3.2538227h-31.374941c.565315 2.5823989 1.901512 4.622494 4.008592 6.1202854 2.107081 1.4977914 4.728083 2.246687 7.863007 2.246687 2.158473 0 4.072833-.3227998 5.743079-.9683995 1.670247-.6455998 3.224861-1.6656473 4.663843-3.0601428l6.398329 6.9724771c-3.905807 4.4933741-9.610342 6.7400612-17.113604 6.7400612-4.67669 0-8.813763-.9167516-12.411217-2.7502549-3.597454-1.8335032-6.372633-4.3771661-8.325537-7.6309888-1.952904-3.2538226-2.929356-6.946653-2.929356-11.0784913 0-4.0801903.963604-7.7601087 2.890812-11.0397553 1.927207-3.2796467 4.573906-5.8362216 7.940095-7.6697248 3.36619-1.8335032 7.130669-2.7502549 11.293437-2.7502549 4.059984 0 7.734527.8780157 11.023628 2.6340469 3.289101 1.7560313 5.871559 4.2738702 7.747374 7.5535168 1.875816 3.2796467 2.813724 7.0886851 2.813724 11.4271152zm-21.507638-12.4729867c-2.723786 0-5.010739.7747197-6.860859 2.324159-1.850119 1.5494394-2.980748 3.6670065-3.391885 6.3527013h20.428401c-.411138-2.6340469-1.541766-4.738702-3.391886-6.3139653-1.850119-1.5752633-4.111376-2.362895-6.783771-2.362895zm41.010979-3.0214067c1.438982-2.0142712 3.379037-3.5378865 5.820167-4.5708461s5.254853-1.5494394 8.441169-1.5494394v11.1559633c-1.336197-.1032959-2.23556-.1549439-2.69809-.1549439-3.443278 0-6.141369.9683996-8.094272 2.9051988-1.952904 1.9367992-2.929356 4.8419979-2.929356 8.7155963v19.6778797h-12.025776v-41.6799184h11.486158zm70.227446 37.1090723c-5.498966 0-10.471161-1.2008155-14.916587-3.6024464-4.445426-2.401631-7.940095-5.7329256-10.484009-9.9938838-2.543915-4.2609582-3.815872-9.0771322-3.815872-14.448522 0-5.3713897 1.271957-10.1875637 3.815872-14.4485219 2.543914-4.2609582 6.038583-7.5922528 10.484009-9.99388376 4.445426-2.40163099 9.443318-3.60244649 14.993675-3.60244649 4.676691 0 8.9037.82636766 12.681027 2.47910296s6.950795 4.02854229 9.520405 7.12742099l-8.017183 7.4373089c-3.648847-4.2351342-8.171361-6.3527013-13.567542-6.3527013-3.340493 0-6.321241.7359836-8.942243 2.207951-2.621003 1.4719674-4.663843 3.5249745-6.128521 6.1590214s-2.197016 5.6296297-2.197016 8.9867482c0 3.3571186.732338 6.3527014 2.197016 8.9867483s3.507518 4.687054 6.128521 6.1590214c2.621002 1.4719673 5.60175 2.207951 8.942243 2.207951 5.396181 0 9.918695-2.1433911 13.567542-6.4301733l8.017183 7.4373089c-2.56961 3.1505267-5.755926 5.5521577-9.558949 7.204893s-8.04288 2.4791029-12.719571 2.4791029zm55.04105-43.2293578c5.139221 0 9.289141 1.5494394 12.449762 4.6483181 3.16062 3.0988787 4.74093 7.6955487 4.74093 13.7900102v23.8613659h-12.025775v-22.0020387c0-3.3054706-.719491-5.7716616-2.158473-7.3985729-1.438981-1.6269113-3.520366-2.440367-6.244153-2.440367-3.03214 0-5.447573.9425756-7.2463 2.8277268-1.798727 1.8851513-2.698091 4.6870541-2.698091 8.4057085v20.6075433h-12.025776v-57.48419977h12.025776v20.14271157c1.593158-1.6010874 3.520366-2.8277269 5.781623-3.6799185s4.728083-1.2782875 7.400477-1.2782875zm44.788306 0c6.424025 0 11.357677 1.5365274 14.800954 4.6095821 3.443278 3.0730547 5.164917 7.7084608 5.164917 13.9062181v23.783894h-11.254893v-5.1906218c-2.261257 3.8735984-6.475417 5.8103976-12.642482 5.8103976-3.186316 0-5.948647-.5423038-8.286993-1.6269113-2.338345-1.0846076-4.124224-2.582399-5.357637-4.4933742s-1.850119-4.0801902-1.850119-6.5076452c0-3.8735984 1.45183-6.9208291 4.355489-9.1416922 2.90366-2.220863 7.387629-3.3312946 13.451909-3.3312946h9.55895c0-2.6340469-.796579-4.66123-2.389737-6.0815494-1.593159-1.4203194-3.982896-2.1304791-7.169213-2.1304791-2.209864 0-4.381185.3486238-6.513961 1.0458716-2.132777.6972477-3.944352 1.6398233-5.434726 2.8277268l-4.316945-8.4444445c2.261257-1.6010873 4.972196-2.8406388 8.132816-3.7186544 3.160621-.8780156 6.411178-1.3170235 9.751671-1.3170235zm-.92506 34.7849134c2.055688 0 3.880112-.4777438 5.47327-1.4332314s2.723787-2.362895 3.391885-4.2222222v-4.2609582h-8.248448c-4.933652 0-7.400478 1.6269113-7.400478 4.8807339 0 1.5494394.603859 2.7760788 1.811575 3.6799185 1.207717.9038396 2.865116 1.3557594 4.972196 1.3557594zm55.272315-3.0214067 3.237709 8.5219164c-1.182021.8780156-2.63385 1.5365273-4.355489 1.9755351-1.721639.4390079-3.533214.6585118-5.434726.6585118-4.933651 0-8.749522-1.2653755-11.447613-3.7961264-2.698091-2.530751-4.047136-6.2494054-4.047136-11.1559633v-17.1213048h-6.39833v-9.2966361h6.39833v-10.1488277h12.025775v10.1488277h10.329833v9.2966361h-10.329833v16.9663608c0 1.7560313.449682 3.1117907 1.349046 4.0672783.899363.9554876 2.17132 1.4332314 3.815871 1.4332314 1.901511 0 3.520366-.5164798 4.856563-1.5494393z" transform="translate(201.6694 56.9483)"/><path d="m.3823.0715h6v188h-6z" transform="translate(162.6177 .9285)"/></g></g></svg>